<?xml version="1.0" encoding="UTF-8"?><svg id="a" xmlns="http://www.w3.org/2000/svg" xmlns:xlink="http://www.w3.org/1999/xlink" viewBox="0 0 150 150"><defs><style>.c{fill:url(#b);}.d{fill:none;}</style><linearGradient id="b" x1="20.64" y1="15.16" x2="129.34" y2="137.71" gradientTransform="translate(0 152) scale(1 -1)" gradientUnits="userSpaceOnUse"><stop offset=".08" stop-color="#9945ff"/><stop offset=".3" stop-color="#8752f3"/><stop offset=".5" stop-color="#5497d5"/><stop offset=".6" stop-color="#43b4ca"/><stop offset=".72" stop-color="#28e0b9"/><stop offset=".97" stop-color="#19fb9b"/></linearGradient></defs><path class="d" d="M0,0H150V150H0V0Z"/><path class="c" d="M141.24,108.95l-21.87,23.45c-.47,.51-1.05,.92-1.68,1.19-.64,.28-1.32,.42-2.02,.42H12.01c-.49,0-.98-.14-1.39-.42-.41-.27-.74-.66-.94-1.11-.2-.45-.26-.95-.18-1.44,.08-.49,.31-.94,.64-1.3l21.84-23.45c.47-.51,1.05-.92,1.68-1.19,.64-.28,1.32-.42,2.02-.42h103.66c.5-.01,.99,.13,1.41,.4,.42,.27,.75,.65,.96,1.11,.2,.46,.26,.96,.18,1.45s-.31,.95-.66,1.31Zm-21.87-47.23c-.47-.51-1.05-.91-1.68-1.19-.64-.28-1.32-.42-2.02-.43H12.01c-.49,0-.98,.14-1.39,.42-.41,.27-.74,.66-.94,1.11-.2,.45-.26,.95-.18,1.44,.08,.49,.31,.94,.64,1.3l21.84,23.46c.47,.51,1.05,.91,1.68,1.19,.64,.28,1.32,.42,2.02,.43h103.66c.49,0,.97-.15,1.39-.42,.41-.27,.74-.66,.93-1.11,.2-.45,.26-.95,.17-1.44-.08-.49-.3-.94-.64-1.3l-21.83-23.46ZM12.01,44.88H115.67c.7,0,1.38-.14,2.02-.42,.64-.28,1.21-.68,1.68-1.19l21.87-23.45c.34-.36,.57-.82,.66-1.31,.09-.49,.02-1-.18-1.45-.2-.46-.53-.84-.96-1.11-.42-.27-.91-.41-1.41-.4H35.69c-.7,0-1.38,.14-2.02,.42-.64,.28-1.21,.68-1.68,1.19L10.14,40.61c-.34,.36-.56,.82-.64,1.3-.08,.49-.02,.99,.18,1.44,.2,.45,.52,.84,.94,1.11,.41,.27,.9,.42,1.39,.42h0Z"/></svg>